<svg width="594" height="222" viewBox="0 0 594 222" fill="none" xmlns="http://www.w3.org/2000/svg">
<path d="M181.259 69.1156H199.497L225.002 129.503L250.507 69.1156H268.745V152.49H253.488V99.2464L231.084 152.49H218.927L196.523 99.2464V152.49H181.266V69.1156H181.259ZM279.113 92.4603H294.131V152.49H279.113V92.4603ZM304.218 92.4603H319.237V101.511C323.053 95.671 329.843 91.5069 338.302 91.5069C351.413 91.5069 360.23 100.081 360.23 113.183V152.49H345.212V116.758C345.212 109.734 340.8 104.848 333.771 104.848C324.596 104.848 319.23 112.706 319.23 126.166V152.49H304.211V92.4603H304.218ZM425.221 152.49H410.203V143.44C406.387 149.28 399.596 153.444 391.137 153.444C378.026 153.444 369.209 144.87 369.209 131.768V92.4603H384.227V128.192C384.227 135.217 388.639 140.103 395.668 140.103C404.843 140.103 410.209 132.244 410.209 118.784V92.4603H425.228V152.49H425.221ZM435.231 92.4743V74.8572H450.242V92.4743H465.373V105.093H450.242V131.403C450.242 137.117 453.335 140.215 457.986 140.215C460.252 140.215 462.868 139.858 465.015 138.785L466.088 151.88C463.114 152.953 459.894 153.43 456.443 153.43C444.294 153.43 435.238 146.882 435.238 132.833V105.1M499.871 91.5069C520.129 91.5069 530.026 106.516 530.026 120.453C530.026 122.598 529.907 125.22 529.788 126.412H485.217C486.529 135.462 492.365 140.825 500.951 140.825C507.98 140.825 512.988 137.488 514.538 131.655L528.603 135.469C525.264 146.784 514.777 153.458 500.712 153.458C480.812 153.458 470.199 138.091 470.199 122.486C470.199 106.881 479.97 91.5139 499.878 91.5139L499.871 91.5069ZM513.935 115.447C513.219 108.304 508.569 102.941 499.871 102.941C492.484 102.941 487.237 107.35 485.568 115.447H513.935ZM536.761 92.4603H551.779V101.511C555.595 95.671 562.385 91.5069 570.845 91.5069C583.955 91.5069 592.772 100.081 592.772 113.183V152.49H577.754V116.758C577.754 109.734 573.342 104.848 566.313 104.848C557.138 104.848 551.772 112.706 551.772 126.166V152.49H536.754V92.4603H536.761ZM286.738 85.0082C291.711 85.0082 295.738 80.9772 295.738 76.0139C295.738 71.0505 291.704 67.0195 286.738 67.0195C281.772 67.0195 277.738 71.0505 277.738 76.0139C277.738 80.9772 281.772 85.0082 286.738 85.0082Z" fill="#52575C"/>
<path d="M0.673828 10.8799C0.666866 4.97016 5.45824 0.819715 11.3154 1.66797L149.868 21.7109C155.725 22.5592 160.516 28.0902 160.517 34.0068V187.528L160.523 187.521C160.523 193.438 155.732 198.969 149.875 199.817L11.3223 219.86C5.46512 220.709 0.673946 216.558 0.673828 210.642V10.8799ZM41.4287 160.51L39.7871 162.725L29.623 176.332L34.8203 182.192L71.332 177.839L75.8564 171.319L66.5967 159.935H66.6035L65.4258 158.49L41.4287 160.51ZM109.442 154.782L108.151 156.717L100.204 168.655L104.272 173.899L133.047 170.464L136.638 164.709L129.294 154.48V154.487L128.36 153.184L109.442 154.782ZM19.4023 123.074V165.199L24.5928 171.018L35.585 156.479L37.0791 154.501V131.661L35.6064 129.881L35.5996 129.874V129.825L24.6914 116.575L19.4023 123.074ZM92.2422 121.566V158.708L96.2832 163.902L104.876 151.144L106.047 149.412V129.194L104.89 127.603V127.574L96.3672 115.839L92.2422 121.566ZM132.549 126.705L131.503 128.304V147.547L132.549 149.02L140.047 159.591L143.407 154.193V120.536L139.984 115.426L132.549 126.705ZM36.5391 101.355H36.5322L28.9141 110.764L36.0693 119.555L37.3525 121.139L69.0869 120.564L69.9707 119.387L76.459 110.715L69.8232 101.854L69.8164 101.86H69.8096L69.0801 100.886L37.3457 100.36L36.5391 101.355ZM132.556 72.4092L131.518 73.875V93.1602L132.562 94.7588L139.984 106.011L143.407 100.886V67.2285L140.05 61.8428L132.556 72.4092ZM92.249 62.7422V99.8838L96.374 105.611L104.896 93.8613L106.068 92.2559V72.0518L106.062 72.0449L104.89 70.3135L96.29 57.5479L92.249 62.7422ZM70.6797 67.7686L69.3672 69.4092V91.0576L70.7002 92.8594L80.0303 105.492L84.3369 99.7646V62.083L80.1143 55.998L70.6797 67.7686ZM100.246 52.8018L108.446 65.1611L109.449 66.6748L128.368 68.2451L129.561 66.584L136.673 56.7129H136.68L133.089 50.9434L104.314 47.5645L100.246 52.8018ZM29.6436 45.2373L40.124 59.3145L41.4141 61.0459L65.4111 63.0371L66.9199 61.1787L75.877 50.2012L71.3672 43.6807L34.8555 39.377L29.6436 45.2373ZM140.047 61.8379L140.05 61.8428L140.054 61.8379H140.047Z" fill="#52575C"/>
</svg>
